<?xml version="1.0" encoding="UTF-8"?>
<!DOCTYPE svg PUBLIC "-//W3C//DTD SVG 1.1//EN" "http://www.w3.org/Graphics/SVG/1.1/DTD/svg11.dtd">
<svg xmlns="http://www.w3.org/2000/svg" version="1.1" width="1024px" height="1024px" style="shape-rendering:geometricPrecision; text-rendering:geometricPrecision; image-rendering:optimizeQuality; fill-rule:evenodd; clip-rule:evenodd" xmlns:xlink="http://www.w3.org/1999/xlink">
<g><path style="opacity:0.998" fill="#0b0b0b" d="M 761.5,617.5 C 760.957,617.56 760.624,617.893 760.5,618.5C 761.325,619.386 762.325,619.719 763.5,619.5C 771.627,620.804 776.627,625.304 778.5,633C 778.74,635.891 777.907,638.391 776,640.5C 771.746,643.76 767.246,646.593 762.5,649C 770.379,653.274 774.212,659.774 774,668.5C 771.125,673.856 766.625,676.523 760.5,676.5C 757.753,676.187 755.086,676.52 752.5,677.5C 752.624,678.107 752.957,678.44 753.5,678.5C 758.647,684.751 760.147,691.751 758,699.5C 750.897,705.504 743.231,706.17 735,701.5C 735.054,705.168 735.554,708.834 736.5,712.5C 736.709,719.451 733.542,723.784 727,725.5C 707.386,713.262 687.219,701.762 666.5,691C 649.635,683.379 632.468,676.546 615,670.5C 571.864,696.628 526.698,700.462 479.5,682C 418.24,655.211 389.906,608.378 394.5,541.5C 387.123,541.571 379.956,541.571 373,541.5C 373.813,546.102 374.646,550.769 375.5,555.5C 375.41,558.152 376.076,560.485 377.5,562.5C 381.102,573.569 384.102,584.902 386.5,596.5C 386.41,599.152 387.076,601.485 388.5,603.5C 390.741,609.577 392.408,615.91 393.5,622.5C 393.41,625.152 394.076,627.485 395.5,629.5C 397.79,633.648 398.29,637.982 397,642.5C 396.097,643.701 394.931,644.535 393.5,645C 357.877,654.656 322.21,664.156 286.5,673.5C 282.13,672.629 279.63,669.963 279,665.5C 261.511,601.206 244.511,536.872 228,472.5C 229.26,469.572 231.427,467.739 234.5,467C 269.236,457.441 304.069,448.274 339,439.5C 341.261,439.439 343.261,440.106 345,441.5C 347.347,448.373 349.18,455.373 350.5,462.5C 350.41,465.152 351.076,467.485 352.5,469.5C 354.741,475.577 356.408,481.91 357.5,488.5C 357.41,491.152 358.076,493.485 359.5,495.5C 362.258,502.86 364.258,510.527 365.5,518.5C 370.273,516.915 374.44,514.248 378,510.5C 375.15,490.032 382.65,474.532 400.5,464C 416.578,454.906 433.245,453.572 450.5,460C 468.765,467.375 484.931,477.875 499,491.5C 499.542,472.162 500.208,452.829 501,433.5C 502.041,399.385 511.708,368.052 530,339.5C 539.54,326.96 550.706,316.127 563.5,307C 588.674,291.243 614.341,276.243 640.5,262C 653.516,253.987 665.683,244.82 677,234.5C 679.139,231.061 681.639,227.894 684.5,225C 688.672,223.709 691.839,224.876 694,228.5C 698.628,242.309 701.462,256.475 702.5,271C 702.366,286.911 697.033,300.745 686.5,312.5C 687.74,316.651 689.74,320.317 692.5,323.5C 718.763,318.018 744.43,310.518 769.5,301C 774.506,298.499 779.173,295.499 783.5,292C 788.614,289.207 792.447,290.374 795,295.5C 796.496,315.704 793.162,335.037 785,353.5C 782.667,356.833 780.333,360.167 778,363.5C 773.454,367.714 768.621,371.547 763.5,375C 766.479,390.39 767.312,405.89 766,421.5C 763.094,435.222 756.594,446.889 746.5,456.5C 739.239,464.12 731.239,470.786 722.5,476.5C 722.496,498.35 715.663,517.683 702,534.5C 680.775,557.709 655.275,574.543 625.5,585C 649.6,589.184 671.267,583.85 690.5,569C 699.203,560.629 708.203,552.629 717.5,545C 723.814,544.298 727.648,547.132 729,553.5C 729.354,558.338 729.52,563.005 729.5,567.5C 735.855,563.738 742.522,562.905 749.5,565C 754.081,568.438 755.581,572.938 754,578.5C 752.599,582.599 751.266,586.599 750,590.5C 758.104,588.588 765.104,590.588 771,596.5C 772.186,605.463 769.019,612.463 761.5,617.5 Z"/></g>
<g><path style="opacity:1" fill="#fafafa" d="M 664.5,329.5 C 661.135,323.103 658.135,316.436 655.5,309.5C 670.11,295.068 675.444,277.735 671.5,257.5C 675.605,253.898 679.605,250.065 683.5,246C 684.332,245.312 684.998,245.479 685.5,246.5C 688.367,258.324 689.201,270.324 688,282.5C 685.864,292.3 680.864,300.3 673,306.5C 672.333,308.833 672.333,311.167 673,313.5C 674.971,317.74 676.305,322.073 677,326.5C 672.981,328.046 668.815,329.046 664.5,329.5 Z"/></g>
<g><path style="opacity:1" fill="#7ed7d3" d="M 671.5,257.5 C 675.444,277.735 670.11,295.068 655.5,309.5C 658.135,316.436 661.135,323.103 664.5,329.5C 621.539,339.635 589.373,363.968 568,402.5C 563.727,410.712 559.727,419.045 556,427.5C 545.143,458.403 534.476,489.403 524,520.5C 520.333,515.833 516.667,511.167 513,506.5C 511.974,475.099 512.974,443.766 516,412.5C 519.526,378.28 534.026,349.78 559.5,327C 568.481,319.843 577.815,313.176 587.5,307C 616.379,291.737 644.379,275.237 671.5,257.5 Z"/></g>
<g><path style="opacity:1" fill="#fafbfb" d="M 569.5,583.5 C 570.455,581.254 571.122,578.921 571.5,576.5C 607.129,565.856 639.129,548.689 667.5,525C 678.788,514.921 686.955,502.755 692,488.5C 693.548,479.533 694.715,470.533 695.5,461.5C 712.959,450.875 726.459,436.542 736,418.5C 738.918,410.244 740.418,401.744 740.5,393C 739.659,381.939 738.326,370.939 736.5,360C 739.541,356.629 743.208,353.963 747.5,352C 757.879,342.41 763.879,330.577 765.5,316.5C 770.864,314.654 776.031,312.321 781,309.5C 781.957,323.712 778.957,337.045 772,349.5C 767.277,356.888 760.777,362.055 752.5,365C 751.874,365.75 751.374,366.584 751,367.5C 751.305,379.88 752.138,392.213 753.5,404.5C 754.442,419.172 750.276,432.172 741,443.5C 731.924,453.025 721.924,461.358 711,468.5C 710.333,469.833 709.667,471.167 709,472.5C 709.949,490.527 705.283,506.861 695,521.5C 671.611,548.848 642.444,567.348 607.5,577C 594.956,580.146 582.289,582.313 569.5,583.5 Z"/></g>
<g><path style="opacity:1" fill="#7ed7d3" d="M 765.5,316.5 C 763.879,330.577 757.879,342.41 747.5,352C 743.208,353.963 739.541,356.629 736.5,360C 738.326,370.939 739.659,381.939 740.5,393C 740.418,401.744 738.918,410.244 736,418.5C 726.459,436.542 712.959,450.875 695.5,461.5C 694.715,470.533 693.548,479.533 692,488.5C 686.955,502.755 678.788,514.921 667.5,525C 639.129,548.689 607.129,565.856 571.5,576.5C 571.122,578.921 570.455,581.254 569.5,583.5C 566.602,587.284 566.935,590.784 570.5,594C 578.9,594.718 587.233,594.218 595.5,592.5C 606.36,595.372 617.36,597.539 628.5,599C 657.715,602.039 683.048,593.705 704.5,574C 708,570.5 711.5,567 715,563.5C 714.734,569.325 713.4,574.992 711,580.5C 710.506,587.324 713.672,589.824 720.5,588C 743.97,572.154 746.47,574.987 728,596.5C 725.497,601.527 726.997,604.86 732.5,606.5C 738.063,604.854 743.73,603.854 749.5,603.5C 752.059,603.198 754.393,603.532 756.5,604.5C 750.647,610.015 744.147,614.682 737,618.5C 735.817,622.274 736.651,625.441 739.5,628C 747.715,628.726 755.715,630.393 763.5,633C 762.284,634.74 760.618,635.74 758.5,636C 752.911,637.654 747.244,638.987 741.5,640C 738.558,640.94 737.225,642.94 737.5,646C 737.354,648.034 738.02,649.701 739.5,651C 747.011,653.917 753.678,658.083 759.5,663.5C 751.932,664.829 744.432,664.496 737,662.5C 731.416,662.414 729.083,665.08 730,670.5C 734.333,675.5 738.667,680.5 743,685.5C 743.833,687.167 744.667,688.833 745.5,690.5C 745,690.833 744.5,691.167 744,691.5C 736.956,688.727 730.123,685.56 723.5,682C 720.225,681.018 717.559,681.851 715.5,684.5C 711.086,681.789 706.419,679.289 701.5,677C 680.474,668.152 659.474,659.318 638.5,650.5C 640.88,647.44 642.88,644.106 644.5,640.5C 642.395,635.113 638.728,633.613 633.5,636C 630.999,639.667 627.999,642.834 624.5,645.5C 621.708,643.942 618.708,642.609 615.5,641.5C 559.012,670.451 505.345,665.951 454.5,628C 428.005,605.843 412.339,577.676 407.5,543.5C 407.83,540.843 408.163,538.176 408.5,535.5C 408.674,533.307 408.007,531.473 406.5,530C 396.933,528.718 387.266,528.051 377.5,528C 381.217,524.615 385.217,521.615 389.5,519C 391.049,517.786 392.215,516.286 393,514.5C 392.035,509.61 391.201,504.61 390.5,499.5C 391.724,489.89 396.391,482.39 404.5,477C 418.089,468.557 432.423,467.224 447.5,473C 478.24,486.576 502.24,507.743 519.5,536.5C 514.715,552.297 511.215,568.297 509,584.5C 513.819,588.919 517.819,588.252 521,582.5C 524.058,567.665 527.724,552.998 532,538.5C 542.934,504.363 554.268,470.363 566,436.5C 579.052,394.784 605.885,365.95 646.5,350C 674.581,340.146 703.247,332.48 732.5,327C 743.665,323.96 754.665,320.46 765.5,316.5 Z"/></g>
<g><path style="opacity:1" fill="#faa556" d="M 325.5,455.5 C 327.167,455.5 328.833,455.5 330.5,455.5C 325.648,477.55 320.481,499.55 315,521.5C 309.31,524.528 304.31,528.528 300,533.5C 281.95,515.286 264.45,496.619 247.5,477.5C 273.642,470.28 299.642,462.947 325.5,455.5 Z"/></g>
<g><path style="opacity:0.843" fill="#525252" d="M 350.5,462.5 C 351.924,464.515 352.59,466.848 352.5,469.5C 351.076,467.485 350.41,465.152 350.5,462.5 Z"/></g>
<g><path style="opacity:1" fill="#f7a355" d="M 339.5,472.5 C 345.272,490.167 350.272,508.167 354.5,526.5C 353.262,528.924 351.762,531.258 350,533.5C 349.586,539.753 352.586,542.753 359,542.5C 366.135,566.709 372.468,591.042 378,615.5C 365.65,602.651 353.483,589.651 341.5,576.5C 346.922,565.999 345.256,556.999 336.5,549.5C 340.688,539.211 338.022,531.211 328.5,525.5C 328.167,524.667 327.833,523.833 327.5,523C 331.426,506.13 335.426,489.297 339.5,472.5 Z"/></g>
<g><path style="opacity:0.827" fill="#555555" d="M 357.5,488.5 C 358.924,490.515 359.59,492.848 359.5,495.5C 358.076,493.485 357.41,491.152 357.5,488.5 Z"/></g>
<g><path style="opacity:1" fill="#060909" d="M 420.5,491.5 C 431.621,491.107 434.954,495.941 430.5,506C 425.21,509.722 420.71,508.888 417,503.5C 415.593,498.643 416.76,494.643 420.5,491.5 Z"/></g>
<g><path style="opacity:1" fill="#faa555" d="M 248.5,498.5 C 263.133,513.301 277.633,528.301 292,543.5C 289.747,548.691 287.414,554.025 285,559.5C 284.218,562.257 284.718,564.757 286.5,567C 291.5,570.5 296.5,574 301.5,577.5C 296.648,598.241 291.482,618.907 286,639.5C 272.802,592.673 260.302,545.673 248.5,498.5 Z"/></g>
<g><path style="opacity:1" fill="#ec595a" d="M 316.5,535.5 C 323.38,534.876 326.214,537.876 325,544.5C 323.738,546.303 322.071,547.636 320,548.5C 317.079,556.475 319.912,560.308 328.5,560C 331.875,561.029 333.042,563.196 332,566.5C 331.226,568.939 329.726,570.773 327.5,572C 323.318,572.611 319.318,571.944 315.5,570C 311.007,567.921 306.674,565.588 302.5,563C 301.101,561.938 300.101,560.605 299.5,559C 303.112,549.573 308.779,541.74 316.5,535.5 Z"/></g>
<g><path style="opacity:1" fill="#fafbfb" d="M 407.5,543.5 C 412.339,577.676 428.005,605.843 454.5,628C 505.345,665.951 559.012,670.451 615.5,641.5C 618.708,642.609 621.708,643.942 624.5,645.5C 603.418,665.866 578.085,677.366 548.5,680C 503.199,682.462 465.033,667.295 434,634.5C 412.326,607.972 403.493,577.639 407.5,543.5 Z"/></g>
<g><path style="opacity:0.702" fill="#575757" d="M 375.5,555.5 C 376.924,557.515 377.59,559.848 377.5,562.5C 376.076,560.485 375.41,558.152 375.5,555.5 Z"/></g>
<g><path style="opacity:1" fill="#fba556" d="M 312.5,582.5 C 318.713,584.018 325.046,584.851 331.5,585C 347.349,601.349 363.016,617.849 378.5,634.5C 376.887,635.427 375.221,636.261 373.5,637C 347.718,643.362 322.052,650.196 296.5,657.5C 296.167,656.833 295.833,656.167 295.5,655.5C 301.326,631.195 306.993,606.861 312.5,582.5 Z"/></g>
<g><path style="opacity:0.835" fill="#515151" d="M 386.5,596.5 C 387.924,598.515 388.59,600.848 388.5,603.5C 387.076,601.485 386.41,599.152 386.5,596.5 Z"/></g>
<g><path style="opacity:1" fill="#487a78" d="M 749.5,603.5 C 752.024,602.2 754.691,602.2 757.5,603.5C 757.376,604.107 757.043,604.44 756.5,604.5C 754.393,603.532 752.059,603.198 749.5,603.5 Z"/></g>
<g><path style="opacity:0.671" fill="#757575" d="M 761.5,617.5 C 762.167,618.167 762.833,618.833 763.5,619.5C 762.325,619.719 761.325,619.386 760.5,618.5C 760.624,617.893 760.957,617.56 761.5,617.5 Z"/></g>
<g><path style="opacity:0.702" fill="#575757" d="M 393.5,622.5 C 394.924,624.515 395.59,626.848 395.5,629.5C 394.076,627.485 393.41,625.152 393.5,622.5 Z"/></g>
<g><path style="opacity:1" fill="#f9fafa" d="M 638.5,650.5 C 659.474,659.318 680.474,668.152 701.5,677C 706.419,679.289 711.086,681.789 715.5,684.5C 715.338,686.527 715.505,688.527 716,690.5C 718.114,695.06 719.947,699.726 721.5,704.5C 721.167,705.167 720.833,705.833 720.5,706.5C 691.738,687.786 661.071,672.786 628.5,661.5C 627.479,660.998 627.312,660.332 628,659.5C 631.667,656.664 635.167,653.664 638.5,650.5 Z"/></g>
<g><path style="opacity:0.455" fill="#8f8f8f" d="M 760.5,676.5 C 758.167,677.167 755.833,677.833 753.5,678.5C 752.957,678.44 752.624,678.107 752.5,677.5C 755.086,676.52 757.753,676.187 760.5,676.5 Z"/></g>
</svg>
